<svg width="177.7998" height="175.0563" viewBox="0 0 177.7998 175.0563" xmlns="http://www.w3.org/2000/svg" xmlns:xlink="http://www.w3.org/1999/xlink"><defs><linearGradient x1="90.7716" y1="0" x2="90.7716" y2="174.0563" gradientUnits="userSpaceOnUse" id="color-1"><stop offset="0" stop-color="#ffffff"></stop><stop offset="1" stop-color="#919191"></stop></linearGradient></defs><g fill="none" fill-rule="none" stroke="none" stroke-width="none" stroke-linecap="butt" stroke-linejoin="miter" stroke-miterlimit="10" stroke-dasharray="" stroke-dashoffset="0" font-family="none" font-weight="none" font-size="none" text-anchor="none" style="mix-blend-mode: normal"><path d="M25.5114,87.0281c0,-42.6015 31.2549,-77.1369 69.8098,-77.1369c38.5549,0 69.8098,34.5354 69.8098,77.1369c0,42.6015 -31.2549,77.1369 -69.8098,77.1369c-38.5549,0 -69.8098,-34.5354 -69.8098,-77.1369z" fill="#2782c4" fill-rule="nonzero" stroke="none" stroke-width="1"></path><path d="M58.0789,87.5581c-2.1124,4.7213 -3.0303,9.653 -2.7649,14.7971c1.4709,21.1344 13.2605,33.1137 35.3908,35.9357c28.3679,-4.0216 40.3455,-19.5237 35.9438,-46.505c-9.6772,-17.433 -19.6308,-34.6959 -29.861,-51.7897c-1.4488,-2.8939 -3.8487,-4.3038 -7.1888,-4.2277c-11.0486,16.8877 -21.5552,34.1505 -31.5199,51.7897z" fill="#4d4d4d" fill-rule="evenodd" stroke="#000000" stroke-width="0"></path><path d="M0,88.0281c0,-48.0643 38.9638,-87.0281 87.0281,-87.0281c48.0643,0 87.0281,38.9638 87.0281,87.0281c0,48.0643 -38.9638,87.0281 -87.0281,87.0281c-48.0643,0 -87.0281,-38.9638 -87.0281,-87.0281zM57.5281,88.5281c-1.91,4.467 -2.74,9.133 -2.5,14c1.33,19.996 11.99,31.33 32,34c25.65,-3.805 36.48,-18.472 32.5,-44c-8.75,-16.494 -17.75,-32.827 -27,-49c-1.31,-2.738 -3.48,-4.072 -6.5,-4c-9.99,15.978 -19.49,32.311 -28.5,49z" fill="#0f0f0f" fill-rule="nonzero" stroke="#000000" stroke-width="0"></path><path d="M3.7435,87.0281c0,-48.0643 38.9638,-87.0281 87.0281,-87.0281c48.0643,0 87.0281,38.9638 87.0281,87.0281c0,48.0643 -38.9638,87.0281 -87.0281,87.0281c-48.0643,0 -87.0281,-38.9638 -87.0281,-87.0281zM61.2716,87.5281c-1.91,4.467 -2.74,9.133 -2.5,14c1.33,19.996 11.99,31.33 32,34c25.65,-3.805 36.48,-18.472 32.5,-44c-8.75,-16.494 -17.75,-32.827 -27,-49c-1.31,-2.738 -3.48,-4.072 -6.5,-4c-9.99,15.978 -19.49,32.311 -28.5,49z" fill="url(#color-1)" fill-rule="nonzero" stroke="#000000" stroke-width="0"></path></g></svg>