<svg version="1.2" xmlns="http://www.w3.org/2000/svg" viewBox="482 398 1034 190" width="1034" height="190">
	<title>lumon-globe</title>
	<style>
		.s0 { fill: #ffffff } 
		.s1 { fill: #ffffff;stroke: #ffffff;stroke-miterlimit:100 } 
		.s2 { fill: #111828 } 
	</style>
	<g id="Folder 1">
		<g id="Folder 2">
			<path fill-rule="evenodd" class="s0" d="m515.5 533.5q66.5 0 133 0 0 12.5 0 25-83 0-166 0 0-69 0-138 16 0 32 0-0.5 56.8 1 113z"/>
			<path fill-rule="evenodd" class="s0" d="m702.5 521.5q2 8.3 10 11.5 53.5 1 107 0 10.4-2.1 12-12.5 1.5-49.7 1-100 16 0 32 0 0.3 55.5-0.5 111-5.4 21.9-27.5 26.5-70 1-140 0-26.1-6.8-27-33.5 0-52 0-104 16 0 32 0-0.5 50.8 1 101z"/>
			<path fill-rule="evenodd" class="s1" d="m916.5 420.5q37.4 51.1 75.5 102 38.1-50.9 75.5-102 14.5 0 29 0 0 69 0 138-16 0-32 0 0.3-40.5-0.5-81-30.3 39.8-59.5 80.5-12.5 1-25 0-29.9-40.1-59.5-80.5-0.8 40.5-0.5 81-16 0-32 0 0-69 0-138 14.5 0 29 0z"/>
			<path fill-rule="evenodd" class="s0" d="m1362.5 420.5q60.4 47.7 120.5 96 0.8-48 0.5-96 16 0 32 0 0 69 0 138-15 0.2-30-0.5-59.8-48-120-95.5-1.5 48-1 96-16 0-32 0 0-69 0-138 15 0 30 0z"/>
		</g>
		<g id="Folder 3">
			<path id="Shape 1" fill-rule="evenodd" class="s1" d="m1213 588c-52.5 0-95-42.5-95-95 0-52.5 42.5-95 95-95 52.5 0 95 42.5 95 95 0 52.5-42.5 95-95 95z"/>
			<path id="drop" fill-rule="evenodd" class="s2" d="m1212.5 446.5q4.5-0.1 6.5 4 13.9 24.3 27 49 6 38.3-32.5 44-30-4-32-34-0.4-7.3 2.5-14 13.5-25 28.5-49z"/>
		</g>
	</g>
</svg>