<svg width="1450.5684" height="740.1547" viewBox="0 0 1450.5684 740.1547" xmlns="http://www.w3.org/2000/svg" xmlns:xlink="http://www.w3.org/1999/xlink"><g fill="none" fill-rule="none" stroke="none" stroke-width="none" stroke-linecap="butt" stroke-linejoin="miter" stroke-miterlimit="10" stroke-dasharray="" stroke-dashoffset="0" font-family="none" font-weight="none" font-size="none" text-anchor="none" style="mix-blend-mode: normal"><path d="M667.6177,0.9097c117.96,-4.17 234.63,5.997 350,30.5c71.52,15.95 140.52,39.283 207,70c45.15,21.538 86.82,48.205 125,80c35.43,30.059 63.26,65.892 83.5,107.5c26.49,63.416 22.82,125.083 -11,185c-23.4,38.742 -53.23,71.909 -89.5,99.5c-60.43,45.052 -126.76,79.386 -199,103c-119.13,39.245 -241.47,60.245 -367,63c-131.876,4.346 -261.542,-10.321 -389,-44c-77.91,-20.964 -151.244,-52.297 -220,-94c-36.468,-23.792 -69.301,-51.959 -98.5,-84.5c-23.817,-27.955 -41.15,-59.622 -52,-95c-13.659,-51.724 -7.659,-101.057 18,-148c9.849,-17.706 21.183,-34.373 34,-50c31.93,-35.506 68.096,-65.673 108.5,-90.5c65.989,-38.67 135.989,-68.004 210,-88c95.142,-25.473 191.808,-40.306 290,-44.5z" fill="#2782c4" fill-rule="evenodd" stroke="none" stroke-width="1"></path><g fill="#ffffff"><g fill-rule="evenodd" stroke="none" stroke-width="1"><path d="M241.7842,335.4059c44.333,0 88.667,0 133,0c0,8.333 0,16.667 0,25c-55.333,0 -110.667,0 -166,0c0,-46 0,-92 0,-138c10.667,0 21.333,0 32,0c-0.332,37.837 0.002,75.504 1,113z"></path></g><g fill-rule="evenodd" stroke="none" stroke-width="1"><path d="M428.7842,323.4059c1.351,5.52 4.684,9.353 10,11.5c35.667,0.667 71.333,0.667 107,0c6.921,-1.42 10.921,-5.587 12,-12.5c0.998,-33.162 1.332,-66.496 1,-100c10.667,0 21.333,0 32,0c0.167,37.002 0,74.002 -0.5,111c-3.578,14.577 -12.744,23.41 -27.5,26.5c-46.667,0.667 -93.333,0.667 -140,0c-17.367,-4.524 -26.367,-15.691 -27,-33.5c0,-34.667 0,-69.333 0,-104c10.667,0 21.333,0 32,0c-0.332,33.837 0.002,67.504 1,101z"></path></g><g fill-rule="evenodd" stroke="none" stroke-width="1"><path d="M642.7842,222.4059c24.918,34.099 50.084,68.099 75.5,102c25.42,-33.901 50.58,-67.901 75.5,-102c9.67,0 19.33,0 29,0c0,46 0,92 0,138c-10.67,0 -21.33,0 -32,0c0.17,-27.002 0,-54.002 -0.5,-81c-20.2,26.566 -40.03,53.4 -59.5,80.5c-8.333,0.667 -16.667,0.667 -25,0c-19.955,-26.744 -39.789,-53.578 -59.5,-80.5c-0.5,26.998 -0.667,53.998 -0.5,81c-10.667,0 -21.333,0 -32,0c0,-46 0,-92 0,-138c9.667,0 19.333,0 29,0z"></path></g><g fill-rule="evenodd" stroke="none" stroke-width="1"><path d="M1088.7842,222.4059c40.29,31.786 80.46,63.786 120.5,96c0.5,-31.998 0.67,-63.998 0.5,-96c10.67,0 21.33,0 32,0c0,46 0,92 0,138c-10.01,0.166 -20.01,0 -30,-0.5c-39.86,-32.024 -79.86,-63.857 -120,-95.5c-1,31.993 -1.33,63.993 -1,96c-10.67,0 -21.33,0 -32,0c0,-46 0,-92 0,-138c10,0 20,0 30,0z"></path></g><path d="M856.7561,290.9059c0,-48.0643 38.9638,-87.0281 87.0281,-87.0281c48.0643,0 87.0281,38.9638 87.0281,87.0281c0,48.0643 -38.9638,87.0281 -87.0281,87.0281c-48.0643,0 -87.0281,-38.9638 -87.0281,-87.0281zM914.2842,291.4059c-1.91,4.467 -2.74,9.133 -2.5,14c1.33,19.996 11.99,31.33 32,34c25.65,-3.805 36.48,-18.472 32.5,-44c-8.75,-16.494 -17.75,-32.827 -27,-49c-1.31,-2.738 -3.48,-4.072 -6.5,-4c-9.99,15.978 -19.49,32.311 -28.5,49z" fill-rule="nonzero" stroke="#000000" stroke-width="0"></path></g><g fill="#ffffff" fill-rule="nonzero" stroke="#ffffff" stroke-width="9"><polygon points="401.83,533.937 387.77,533.937 387.77,433.157 331.52,433.157 331.52,421.437 458.08,421.437 458.08,433.157 401.83,433.157"></polygon><path d="M576.8546,536.277h-29.52c-10.9867,0 -20.02,-0.7433 -27.1,-2.23c-7.08,-1.4933 -12.61,-4.24 -16.59,-8.24c-3.98,-4.0067 -6.7633,-9.77 -8.35,-17.29c-1.5867,-7.52 -2.38,-17.31 -2.38,-29.37v0v-2.93c0,-9.96 0.4867,-18.32 1.46,-25.08c0.98,-6.7667 2.6667,-12.2733 5.06,-16.52c2.3933,-4.2467 5.6533,-7.4933 9.78,-9.74c4.1267,-2.2467 9.3133,-3.7733 15.56,-4.58c6.2533,-0.8067 13.7733,-1.21 22.56,-1.21v0h29.52c8.7867,0 16.3033,0.4033 22.55,1.21c6.2533,0.8067 11.4433,2.3333 15.57,4.58c4.1267,2.2467 7.3867,5.4933 9.78,9.74c2.3867,4.2467 4.07,9.7533 5.05,16.52c0.9733,6.76 1.46,15.12 1.46,25.08v0v2.93c0,12.06 -0.7933,21.85 -2.38,29.37c-1.5867,7.52 -4.37,13.2833 -8.35,17.29c-3.9733,4 -9.5,6.7467 -16.58,8.24c-7.08,1.4867 -16.1133,2.23 -27.1,2.23zM547.3346,524.117v0h29.52c6.98,0 12.8633,-0.2433 17.65,-0.73c4.78,-0.4867 8.6733,-1.5367 11.68,-3.15c3,-1.6133 5.2933,-4.0533 6.88,-7.32c1.5867,-3.2733 2.6733,-7.6433 3.26,-13.11c0.5867,-5.4733 0.88,-12.36 0.88,-20.66v0v-2.93c0,-8.5933 -0.2933,-15.6733 -0.88,-21.24c-0.5867,-5.5667 -1.6733,-9.96 -3.26,-13.18c-1.5867,-3.2267 -3.88,-5.5833 -6.88,-7.07c-3.0067,-1.4867 -6.9,-2.44 -11.68,-2.86c-4.7867,-0.4133 -10.67,-0.62 -17.65,-0.62v0h-29.52c-6.98,0 -12.8633,0.2067 -17.65,0.62c-4.7867,0.42 -8.68,1.3733 -11.68,2.86c-3.0067,1.4867 -5.3033,3.8433 -6.89,7.07c-1.5867,3.22 -2.6733,7.6133 -3.26,13.18c-0.5867,5.5667 -0.88,12.6467 -0.88,21.24v0v2.93c0,8.3 0.2933,15.1867 0.88,20.66c0.5867,5.4667 1.6733,9.8367 3.26,13.11c1.5867,3.2667 3.8833,5.7067 6.89,7.32c3,1.6133 6.8933,2.6633 11.68,3.15c4.7867,0.4867 10.67,0.73 17.65,0.73z"></path><polygon points="680.1592,533.937 666.0992,533.937 666.0992,421.437 680.1592,421.437 680.1592,470.657 698.8392,470.657 771.5692,421.437 792.6592,421.437 712.9792,476.517 795.0092,533.937 773.9092,533.937 698.9092,482.367 680.1592,482.367"></polygon><polygon points="942.3438,533.937 829.8438,533.937 829.8438,421.437 940.2938,421.437 940.2938,433.157 843.9038,433.157 843.9038,470.657 936.2638,470.657 936.2638,482.367 843.9038,482.367 843.9038,522.217 942.3438,522.217"></polygon><polygon points="991.2384,533.937 977.1784,533.937 977.1784,421.437 991.8284,421.437 1104.8384,516.577 1104.9884,516.577 1104.9884,421.437 1119.0484,421.437 1119.0484,533.937 1104.3984,533.937 991.3884,437.987 991.2384,437.987"></polygon></g></g></svg>